<mxfile host="app.diagrams.net" modified="2020-09-26T05:42:04.241Z" agent="5.0 (Macintosh; Intel Mac OS X 10_15_1) AppleWebKit/537.36 (KHTML, like Gecko) Chrome/85.0.4183.102 Safari/537.36" etag="OaKtFQKWt9pX5--ikpyz" version="13.7.5" type="github">
  <diagram id="RrEE1tscm05q4rtECRgB" name="Page-1">
    <mxGraphModel dx="266" dy="543" grid="1" gridSize="10" guides="1" tooltips="1" connect="1" arrows="1" fold="1" page="1" pageScale="1" pageWidth="850" pageHeight="1100" math="0" shadow="0">
      <root>
        <mxCell id="0" />
        <mxCell id="1" parent="0" />
        <mxCell id="CzCdqUyvz-RtSxYi0whU-1" value="" style="shape=cylinder3;whiteSpace=wrap;html=1;boundedLbl=1;backgroundOutline=1;size=15;rotation=90;" vertex="1" parent="1">
          <mxGeometry x="160" y="110" width="60" height="200" as="geometry" />
        </mxCell>
        <mxCell id="CzCdqUyvz-RtSxYi0whU-2" value="a" style="rounded=0;whiteSpace=wrap;html=1;" vertex="1" parent="1">
          <mxGeometry x="120" y="180" width="30" height="60" as="geometry" />
        </mxCell>
        <mxCell id="CzCdqUyvz-RtSxYi0whU-4" value="b" style="rounded=0;whiteSpace=wrap;html=1;" vertex="1" parent="1">
          <mxGeometry x="150" y="180" width="30" height="60" as="geometry" />
        </mxCell>
        <mxCell id="CzCdqUyvz-RtSxYi0whU-5" value="c" style="rounded=0;whiteSpace=wrap;html=1;" vertex="1" parent="1">
          <mxGeometry x="180" y="180" width="30" height="60" as="geometry" />
        </mxCell>
        <mxCell id="CzCdqUyvz-RtSxYi0whU-6" value="d" style="rounded=0;whiteSpace=wrap;html=1;" vertex="1" parent="1">
          <mxGeometry x="210" y="180" width="30" height="60" as="geometry" />
        </mxCell>
        <mxCell id="CzCdqUyvz-RtSxYi0whU-7" value="push" style="rounded=1;whiteSpace=wrap;html=1;" vertex="1" parent="1">
          <mxGeometry x="210" y="310" width="70" height="30" as="geometry" />
        </mxCell>
        <mxCell id="CzCdqUyvz-RtSxYi0whU-8" value="" style="shape=flexArrow;endArrow=classic;html=1;entryX=1;entryY=1;entryDx=0;entryDy=0;" edge="1" parent="1" target="CzCdqUyvz-RtSxYi0whU-6">
          <mxGeometry width="50" height="50" relative="1" as="geometry">
            <mxPoint x="240" y="300" as="sourcePoint" />
            <mxPoint x="220" y="250" as="targetPoint" />
          </mxGeometry>
        </mxCell>
        <mxCell id="CzCdqUyvz-RtSxYi0whU-9" value="unshift" style="rounded=1;whiteSpace=wrap;html=1;" vertex="1" parent="1">
          <mxGeometry x="90" y="310" width="70" height="30" as="geometry" />
        </mxCell>
        <mxCell id="CzCdqUyvz-RtSxYi0whU-11" value="" style="shape=flexArrow;endArrow=classic;html=1;entryX=1;entryY=1;entryDx=0;entryDy=0;" edge="1" parent="1">
          <mxGeometry width="50" height="50" relative="1" as="geometry">
            <mxPoint x="120" y="300" as="sourcePoint" />
            <mxPoint x="120" y="240" as="targetPoint" />
          </mxGeometry>
        </mxCell>
        <mxCell id="CzCdqUyvz-RtSxYi0whU-12" value="add(2, value)" style="rounded=1;whiteSpace=wrap;html=1;" vertex="1" parent="1">
          <mxGeometry x="140" y="60" width="80" height="30" as="geometry" />
        </mxCell>
        <mxCell id="CzCdqUyvz-RtSxYi0whU-14" value="" style="shape=flexArrow;endArrow=classic;html=1;" edge="1" parent="1">
          <mxGeometry width="50" height="50" relative="1" as="geometry">
            <mxPoint x="179" y="100" as="sourcePoint" />
            <mxPoint x="179" y="170" as="targetPoint" />
          </mxGeometry>
        </mxCell>
      </root>
    </mxGraphModel>
  </diagram>
</mxfile>
